<?xml version="1.0" encoding="UTF-8" standalone="no"?>
<svg xmlns="http://www.w3.org/2000/svg" xmlns:xlink="http://www.w3.org/1999/xlink" width="48" height="48" version="1.1">
 <defs>
  <linearGradient id="gradientebianco">
   <stop style="stop-color:#eff1f1;stop-opacity:1" offset="0"/>
   <stop style="stop-color:#ececec;stop-opacity:1;" offset="1"/>
  </linearGradient>
  <linearGradient id="gradientesfondo">
   <stop style="stop-color:#434343;stop-opacity:1" offset="0"/>
   <stop style="stop-color:#333333;stop-opacity:1" offset="1"/>
  </linearGradient>
  <linearGradient xlink:href="#gradientesfondo" id="gradientesfondorettangolo" x1="35" y1="44" x2="19" y2="3" gradientUnits="userSpaceOnUse"/>
 </defs>
 <g>
     <!--The square-->
  <rect style="opacity:1;fill:url(#gradientesfondorettangolo);fill-opacity:1;stroke:none;stroke-width:2;stroke-linecap:round;stroke-linejoin:round;stroke-miterlimit:4;stroke-dasharray:none;stroke-opacity:1" width="40" height="40" x="4" y="4" rx="2" ry="2"/>
  <path style="opacity:0.15;fill:#000000;fill-opacity:1;stroke:none;stroke-width:2;stroke-linecap:round;stroke-linejoin:round;stroke-miterlimit:4;stroke-dasharray:none;stroke-opacity:1" d="M 4 41 L 4 42 C 4 43.108 4.892 44 6 44 L 42 44 C 43.108 44 44 43.108 44 42 L 44 41 C 44 42.108 43.108 43 42 43 L 6 43 C 4.892 43 4 42.108 4 41 z"/>

    <!--The things-->

  <rect width="10" height="10" rx="5" style="fill:gold" x="32" y="31" />
  <rect width="10" height="10" rx="5" style="fill:gold" x="6"  y="31" />
  <rect width="10" height="10" rx="5" style="fill:red"  x="19" y="31" />

  <rect width="10" height="10" rx="5" style="fill:black" x="32" y="19" />
  <rect width="10" height="10" rx="5" style="fill:red"  x="6"  y="19" />
  <rect width="10" height="10" rx="5" style="fill:gold" x="19" y="19" />

  <rect width="10" height="10" rx="5" style="fill:black" x="32" y="7" />
  <rect width="10" height="10" rx="5" style="fill:black" x="6"  y="7" />
  <rect width="10" height="10" rx="5" style="fill:black"  x="19" y="7" />

 </g>
</svg>
